<svg width="48" height="48" viewBox="0 0 48 48" fill="none" xmlns="http://www.w3.org/2000/svg">
<rect width="48" height="48" rx="8" fill="#293038"/>
<g clip-path="url(#clip0_15_16)">
<path fill-rule="evenodd" clip-rule="evenodd" d="M32.7806 24.5306L26.0306 31.2806C25.7376 31.5737 25.2624 31.5737 24.9694 31.2806C24.6763 30.9876 24.6763 30.5124 24.9694 30.2194L30.4397 24.75H15.75C15.3358 24.75 15 24.4142 15 24C15 23.5858 15.3358 23.25 15.75 23.25H30.4397L24.9694 17.7806C24.6763 17.4876 24.6763 17.0124 24.9694 16.7194C25.2624 16.4263 25.7376 16.4263 26.0306 16.7194L32.7806 23.4694C32.9215 23.6101 33.0006 23.8009 33.0006 24C33.0006 24.1991 32.9215 24.3899 32.7806 24.5306V24.5306Z" fill="white"/>
</g>
<defs>
<clipPath id="clip0_15_16">
<rect width="24" height="24" fill="white" transform="translate(12 12)"/>
</clipPath>
</defs>
</svg>
